<?xml version="1.0" encoding="utf-8"?><!-- Uploaded to: SVG Repo, www.svgrepo.com, Generator: SVG Repo Mixer Tools -->

<svg display="none" xmlns="http://www.w3.org/2000/svg">
    <symbol id="logo" viewBox="0 -0.5 17 17">
        <g stroke-width="0"/>

        <g stroke-linecap="round" stroke-linejoin="round"/>

        <g><g stroke="none" stroke-width="1" fill-rule="evenodd"> <g transform="translate(1.000000, 1.000000)"> <g> <path d="M9.953,13 L5.016,13 L5.016,14.031 L4,14.031 L4,15 L11,15 L11,14.031 L9.953,14.031 L9.953,13 Z"> </path> <path d="M7.016,3 L7.016,11.953 L7.969,11.953 L7.969,3 L12.5,3 L7.969,1.833 L7.969,0.016 L7.016,0.016 L7.016,1.833 L2.469,3 L7.016,3 Z"> </path> <path d="M2.492,4.979 L4.392,8.984 L4.958,8.777 L2.733,4.168 C2.68,4.07 2.576,4.008 2.435,4.016 C2.307,4.021 2.196,4.091 2.156,4.191 L0.012,8.8 L0.6,8.962 L2.492,4.979 L2.492,4.979 Z"> </path> <path d="M12.182,4.195 L10.024,8.814 L10.616,8.976 L12.518,4.986 L14.43,9 L15,8.792 L12.762,4.173 C12.709,4.076 12.602,4.014 12.463,4.022 C12.333,4.025 12.223,4.097 12.182,4.195 L12.182,4.195 Z"> </path> </g> <path d="M14.984,10.031 C14.984,11.092 13.872,11.953 12.5,11.953 C11.128,11.953 10.016,11.092 10.016,10.031 L14.984,10.031 L14.984,10.031 Z"> </path> <path d="M4.984,10.031 C4.984,11.092 3.872,11.953 2.5,11.953 C1.128,11.953 0.016,11.092 0.016,10.031 L4.984,10.031 L4.984,10.031 Z"> </path> </g> </g> </g>
    </symbol>
    
    <symbol id="sign-in" viewBox="0 0 15 15">
        <path fill-rule="evenodd" clip-rule="evenodd" d="M7 1L14 1V14H7V13H13V2L7 2V1ZM7.85355 4.14645L11.1932 7.48614L7.8674 11.0891L7.13259 10.4109L9.358 8L0.999996 8V7L9.29289 7L7.14644 4.85355L7.85355 4.14645Z"/>
    </symbol>

    <symbol id="search" viewBox="0 0 24 24">
        <path fill-rule="evenodd" clip-rule="evenodd" d="M10 5C7.23858 5 5 7.23858 5 10C5 12.7614 7.23858 15 10 15C11.381 15 12.6296 14.4415 13.5355 13.5355C14.4415 12.6296 15 11.381 15 10C15 7.23858 12.7614 5 10 5ZM3 10C3 6.13401 6.13401 3 10 3C13.866 3 17 6.13401 17 10C17 11.5719 16.481 13.0239 15.6063 14.1921L20.7071 19.2929C21.0976 19.6834 21.0976 20.3166 20.7071 20.7071C20.3166 21.0976 19.6834 21.0976 19.2929 20.7071L14.1921 15.6063C13.0239 16.481 11.5719 17 10 17C6.13401 17 3 13.866 3 10Z"/>
    </symbol>

    <symbol id="facebook" viewBox="-337 273 123.5 256">
        <path d="M-260.9,327.8c0-10.3,9.2-14,19.5-14c10.3,0,21.3,3.2,21.3,3.2l6.6-39.2c0,0-14-4.8-47.4-4.8c-20.5,0-32.4,7.8-41.1,19.3
	    c-8.2,10.9-8.5,28.4-8.5,39.7v25.7H-337V396h26.5v133h49.6V396h39.3l2.9-38.3h-42.2V327.8z"/>
    </symbol>

    <symbol id="telegram" viewBox="0 0 24 24">
        <path d="m20.665 3.717-17.73 6.837c-1.21.486-1.203 1.161-.222 1.462l4.552 1.42 10.532-6.645c.498-.303.953-.14.579.192l-8.533 7.701h-.002l.002.001-.314 4.692c.46 0 .663-.211.921-.46l2.211-2.15 4.599 3.397c.848.467 1.457.227 1.668-.785l3.019-14.228c.309-1.239-.473-1.8-1.282-1.434z"/>
    </symbol>

    <symbol id="vk" viewBox="-2.5 0 32 32">
        <path d="M16.563 15.75c-0.5-0.188-0.5-0.906-0.531-1.406-0.125-1.781 0.5-4.5-0.25-5.656-0.531-0.688-3.094-0.625-4.656-0.531-0.438 0.063-0.969 0.156-1.344 0.344s-0.75 0.5-0.75 0.781c0 0.406 0.938 0.344 1.281 0.875 0.375 0.563 0.375 1.781 0.375 2.781 0 1.156-0.188 2.688-0.656 2.75-0.719 0.031-1.125-0.688-1.5-1.219-0.75-1.031-1.5-2.313-2.063-3.563-0.281-0.656-0.438-1.375-0.844-1.656-0.625-0.438-1.75-0.469-2.844-0.438-1 0.031-2.438-0.094-2.719 0.5-0.219 0.656 0.25 1.281 0.5 1.813 1.281 2.781 2.656 5.219 4.344 7.531 1.563 2.156 3.031 3.875 5.906 4.781 0.813 0.25 4.375 0.969 5.094 0 0.25-0.375 0.188-1.219 0.313-1.844s0.281-1.25 0.875-1.281c0.5-0.031 0.781 0.406 1.094 0.719 0.344 0.344 0.625 0.625 0.875 0.938 0.594 0.594 1.219 1.406 1.969 1.719 1.031 0.438 2.625 0.313 4.125 0.25 1.219-0.031 2.094-0.281 2.188-1 0.063-0.563-0.563-1.375-0.938-1.844-0.938-1.156-1.375-1.5-2.438-2.563-0.469-0.469-1.063-0.969-1.063-1.531-0.031-0.344 0.25-0.656 0.5-1 1.094-1.625 2.188-2.781 3.188-4.469 0.281-0.5 0.938-1.656 0.688-2.219-0.281-0.625-1.844-0.438-2.813-0.438-1.25 0-2.875-0.094-3.188 0.156-0.594 0.406-0.844 1.063-1.125 1.688-0.625 1.438-1.469 2.906-2.344 4-0.313 0.375-0.906 1.156-1.25 1.031z"></path>
    </symbol>

    <symbol id="youtube" viewBox="0 0 512 512">
        <path d="M34.354,0.5h45.959l29.604,91.096h2.863L141.013,0.5h46.353l-53.107,133.338v94.589H88.641V138.08
		L34.354,0.5z M192.193,98.657c0-13.374,5.495-24.003,16.493-31.938c10.984-7.934,25.749-11.901,44.3-11.901
		c16.893,0,30.728,4.192,41.506,12.55c10.805,8.358,16.193,19.112,16.193,32.287v89.2c0,14.771-5.301,26.373-15.868,34.782
		c-10.579,8.408-25.151,12.625-43.684,12.625c-17.859,0-32.143-4.342-42.866-13.024c-10.709-8.683-16.074-20.36-16.074-35.057
		V98.657z M234.205,191.424c0,4.766,1.44,8.409,4.354,11.029c2.907,2.595,7.055,3.867,12.451,3.867c5.532,0,9.93-1.297,13.18-3.942
		c3.256-2.669,4.891-6.313,4.891-10.954V97.359c0-3.768-1.672-6.812-4.99-9.132c-3.318-2.321-7.679-3.494-13.081-3.494
		c-4.972,0-9.027,1.173-12.133,3.494c-3.119,2.32-4.672,5.364-4.672,9.132V191.424z M459.992,57.588v172.711h-40.883v-19.063
		c-7.547,7.037-15.381,12.375-23.541,16.069c-8.146,3.643-16.068,5.489-23.729,5.489c-9.455,0-16.592-2.57-21.383-7.71
		c-4.791-5.141-7.186-12.85-7.186-23.13V57.588h40.895v132.39c0,4.117,0.861,7.061,2.57,8.907c1.723,1.822,4.492,2.745,8.322,2.745
		c3.018,0,6.824-1.223,11.4-3.643c4.604-2.42,8.82-5.514,12.65-9.282V57.588H459.992z M421.68,363.262
		c-2.008-2.221-5.203-3.368-9.594-3.368c-4.59,0-7.883,1.147-9.879,3.368c-1.996,2.245-2.994,5.963-2.994,11.153v10.754h25.473
		v-10.754C424.686,369.225,423.688,365.507,421.68,363.262z M300.855,444.228c2.195,0.898,4.516,1.322,6.961,1.322
		c3.543,0,6.113-0.849,7.785-2.595c1.67-1.722,2.494-4.591,2.494-8.533v-62.178c0-4.191-1.023-7.36-3.068-9.531
		c-2.059-2.171-5.064-3.244-8.957-3.244c-2.059,0-4.092,0.399-6.102,1.198c-2.008,0.823-3.991,2.096-5.95,3.792v75.402
		C296.364,441.907,298.646,443.354,300.855,444.228z M490.496,312.587c0-29.941-30.754-54.219-68.654-54.219
		c-54.068-1.822-109.396-2.62-165.842-2.521c-56.427-0.1-111.756,0.698-165.843,2.521c-37.881,0-68.633,24.277-68.633,54.219
		c-2.277,23.678-3.263,47.381-3.175,71.085c-0.087,23.703,0.898,47.406,3.175,71.11c0,29.916,30.752,54.192,68.633,54.192
		c54.087,1.797,109.416,2.596,165.843,2.521c56.446,0.075,111.774-0.724,165.842-2.521c37.9,0,68.654-24.276,68.654-54.192
		c2.27-23.704,3.254-47.407,3.154-71.11C493.75,359.968,492.766,336.265,490.496,312.587z M121.251,463.465v1.797H88.778v-1.797
		V321.644H55.182v-1.771v-22.605v-1.771h99.672v1.771v22.605v1.771h-33.603V463.465z M236.768,341.33v122.135v1.797h-28.831v-1.797
		v-11.901c-5.327,5.064-10.848,8.882-16.592,11.527c-5.757,2.619-11.334,3.942-16.748,3.942c-6.662,0-11.684-1.847-15.065-5.515
		c-3.387-3.692-5.078-9.231-5.078-16.617v-1.797V341.33v-1.772h28.844v1.772v93.216c0,2.92,0.599,5.065,1.802,6.363
		c1.217,1.322,3.175,1.971,5.876,1.971c2.127,0,4.803-0.873,8.047-2.595c3.231-1.747,6.2-3.967,8.914-6.662V341.33v-1.772h28.831
		V341.33z M347.775,370.847v66.943v1.797c0,8.808-2.258,15.544-6.773,20.235c-4.518,4.641-11.055,6.986-19.588,6.986
		c-5.639,0-10.652-0.898-15.07-2.695c-4.428-1.821-8.532-4.616-12.325-8.384v7.735v1.797h-29.105v-1.797V297.267v-1.771h29.105
		v1.771v52.297c3.893-3.793,8.009-6.662,12.376-8.608c4.379-1.971,8.809-2.969,13.273-2.969c9.107,0,16.094,2.645,20.896,7.935
		c4.803,5.289,7.211,12.999,7.211,23.13V370.847z M454.365,374.64v29.767v1.797h-55.152v21.581c0,6.513,0.947,11.029,2.844,13.549
		c1.908,2.521,5.152,3.793,9.742,3.793c4.779,0,8.135-1.073,10.043-3.219c1.896-2.121,2.844-6.837,2.844-14.123v-6.811v-1.796h29.68
		v1.796v7.51v1.796c0,12.7-3.605,22.257-10.84,28.694c-7.225,6.438-18.016,9.631-32.375,9.631c-12.912,0-23.066-3.418-30.49-10.229
		c-7.41-6.812-11.127-16.193-11.127-28.096v-1.796V374.64v-1.771c0-10.754,4.078-19.512,12.213-26.299
		c8.146-6.762,18.689-10.155,31.588-10.155c13.199,0,23.328,3.144,30.416,9.406c7.061,6.264,10.615,15.296,10.615,27.048V374.64z">
        </path>
    </symbol>

    <symbol id="about1" viewBox="0 0 256 240">
        <g stroke-width="0"></g><g stroke-linecap="round" stroke-linejoin="round"></g><g> <path d="M84.635,20.256c18.383,0,33.286,14.903,33.286,33.286s-14.903,33.286-33.286,33.286S51.349,71.925,51.349,53.542 S66.251,20.256,84.635,20.256z M31.002,145.011c0-2.499,1.606-4.194,4.194-4.194s4.194,1.606,4.194,4.194v92.986h91.469v-92.986 c0-2.499,1.606-4.194,4.194-4.194c2.499,0,4.194,1.606,4.194,4.194v92.986h29.092V136.623c0-22.934-18.74-41.585-41.585-41.585 h-8.388l-24.451,38.015l-2.945-28.467l4.016-9.638H76.96l4.016,9.638l-3.123,28.645L53.401,95.038h-9.816 C20.651,95.038,2,113.778,2,136.623v101.375h29.092v-92.986H31.002z M252.133,57.498L238.15,10.946h-31.918V5.17 c0-1.563-1.563-3.17-3.17-3.17c-1.563,0-3.17,1.563-3.17,3.17v5.819h-31.918l-13.983,46.509h-0.304h-1.563 c0,10.552,8.555,19.151,19.151,19.151s19.151-8.555,19.151-19.151h-1.824h-0.304l-13.201-43.643h25.057v67.918h-24.796V91.5h3.17 h24.535h24.535h3.17v-9.727h-24.796V13.855h25.057l-13.201,43.643h-0.304h-1.824c0,10.552,8.555,19.151,19.151,19.151 S254,68.094,254,57.498h-1.563L252.133,57.498L252.133,57.498z M183.955,57.498h-25.361l12.55-42.34L183.955,57.498z M222.169,57.498l12.811-42.34l12.55,42.34H222.169z"></path> </g>
    </symbol>

    <symbol id="about2" viewBox="-2 0 19 19">
        <g stroke-width="0"></g><g stroke-linecap="round" stroke-linejoin="round"></g><g><path d="M9.316 14.722a.477.477 0 0 1-.475.475H1.433a.477.477 0 0 1-.475-.475v-.863a.477.477 0 0 1 .475-.475h7.408a.476.476 0 0 1 .475.475zm-2.767-2.587a.552.552 0 0 1-.392-.163L2.96 8.776a.554.554 0 0 1 .784-.784L6.94 11.19a.554.554 0 0 1-.392.946zm7.33.992L9.435 8.682l1.085-1.084-3.173-3.173-2.97 2.97 3.173 3.172 1.102-1.101 4.445 4.445a.554.554 0 1 0 .784-.784zm-2.33-5.993a.552.552 0 0 1-.391-.162L7.96 3.775a.554.554 0 1 1 .784-.784l3.196 3.197a.554.554 0 0 1-.391.946z"></path></g>
    </symbol>

    <symbol id="about3" viewBox="0 0 512 512">
        <g stroke-width="0"></g><g stroke-linecap="round" stroke-linejoin="round"></g><g><g stroke="none" stroke-width="1" fill-rule="evenodd"> <g transform="translate(42.666667, 64.000000)"> <path d="M1.20792265e-13,197.76 C54.5835501,218.995667 112.186031,231.452204 170.666667,234.666667 L170.666667,277.333333 L256,277.333333 L256,234.666667 C314.339546,231.013 371.833936,218.86731 426.666667,198.613333 L426.666667,362.666667 L1.20792265e-13,362.666667 L1.20792265e-13,197.76 Z M277.333333,-1.42108547e-14 L298.666667,21.3333333 L298.666667,64 L426.666667,64 L426.666667,175.146667 C361.254942,199.569074 292.110481,212.488551 222.293333,213.333333 L222.293333,213.333333 L206.933333,213.333333 C136.179047,212.568604 66.119345,199.278929 7.10542736e-15,174.08 L7.10542736e-15,174.08 L7.10542736e-15,64 L128,64 L128,21.3333333 L149.333333,-1.42108547e-14 L277.333333,-1.42108547e-14 Z M256,42.6666667 L170.666667,42.6666667 L170.666667,64 L256,64 L256,42.6666667 Z"> </path> </g> </g> </g>
    </symbol>

    <symbol id="about4" viewBox="0 0 950 950">
        <g stroke-width="0"></g><g stroke-linecap="round" stroke-linejoin="round"></g><g> <g> <g> <g> <path d="M0,517.352c0,13.211,8.243,25.019,20.644,29.57l56.499,20.742c4.25-10.152,10.483-19.666,18.735-27.918 c16.486-16.486,38.406-25.566,61.722-25.566c23.315,0,45.235,9.08,61.722,25.566l172.915,172.914 c24.33,24.33,31.256,59.563,20.8,90.115c25.141,18.411,58.865,21.584,87.34,7.268L738.185,690.48 c38.854-19.532,54.917-64.051,41.763-102.336c-0.108,0-0.219,0.004-0.325,0.004c-31.656,0-61.48-13.911-81.826-38.168 L534.089,354.8l-23.117,23.117c-16.206,16.204-37.751,25.131-60.67,25.131c-22.918,0-44.465-8.925-60.67-25.131l-7.884-7.885 c-16.206-16.206-25.13-37.752-25.13-60.671c0-22.918,8.925-44.464,25.13-60.67l65.64-65.64l-13.702-16.334 c-25.049-30.156-67.626-38.977-102.594-21.253l-178.495,90.47L43.26,191.946c-20.7-8.328-43.258,6.911-43.258,29.224v296.182H0z"></path> <path d="M950,504.524v-242.43c0-17.397-14.104-31.5-31.5-31.5H779L635.51,127.021c-14.771-10.662-31.996-15.891-49.138-15.891 c-21.646,0-43.158,8.339-59.424,24.604l-64.854,64.853l-64.227,64.227c-24.604,24.603-24.604,64.493,0,89.096l7.884,7.885 c12.301,12.302,28.425,18.452,44.548,18.452c16.124,0,32.247-6.15,44.548-18.452l40.716-40.715l179.699,214.248 c13.398,15.975,31.974,26.096,51.916,29.086c4.103,0.615,8.26,0.936,12.441,0.936c6.003,0,12.06-0.646,18.064-1.969 l127.589-28.094C939.714,532.108,950,519.313,950,504.524z"></path> <path d="M284.914,819.983c12.592,12.593,29.096,18.888,45.6,18.888c16.504,0,33.009-6.295,45.601-18.888 c9.826-9.825,15.799-22.036,17.958-34.768c3.374-19.898-2.601-41.074-17.958-56.434L203.2,555.868 c-12.592-12.592-29.096-18.888-45.6-18.888s-33.008,6.296-45.6,18.888l0,0c-5.84,5.842-10.308,12.528-13.439,19.66 c-10.372,23.627-5.904,52.196,13.439,71.539L284.914,819.983z"></path> </g> </g> </g> </g>
    </symbol>

    <symbol id="time" viewBox="0 0 25 25">
        <path d="M17.1875 14.0625H10.9375V7.8125H14.0625V10.9375H17.1875V14.0625ZM23.4375 1.5625V23.4375H1.5625V1.5625H23.4375ZM20.3125 4.6875H4.6875V20.3125H20.3125V4.6875Z"/>
    </symbol>

    <symbol id="close" viewBox="0 0 24 24">
        <path d="M6 6L18 18M18 6L6 18" stroke-width="2" stroke-linecap="round" stroke-linejoin="round"/>
    </symbol>
</svg>
